# xmcd
#
# Track frame offsets: 
#        150
#        11480
#        25669
#        38451
#        50387
#        62422
#        75745
#        85744
#        100875
#        112285
#
# Disc length: 1711 seconds
#
# Revision: 2
# Processed by: cddbd v1.5.2PL0 Copyright (c) Steve Scherf et al.
# Submitted via: ExactAudioCopy v1.1
#
DISCID=6c06ad0a
DTITLE=Donna Fargo - Good Old Country
DYEAR=2000
DGENRE=Country
TTITLE0=All That's Keeping Me Alive
TTITLE1=Do I Love You
TTITLE2=Don't Be Angry
TTITLE3=Funny Face
TTITLE4=The Happiest Girl In The Whole U.S.A.
TTITLE5=Somebody Special
TTITLE6=Sticks And Stones
TTITLE7=That Was Yesterday
TTITLE8=Wishful Thinking
TTITLE9=You Were Always There
EXTD=
EXTT0=
EXTT1=
EXTT2=
EXTT3=
EXTT4=
EXTT5=
EXTT6=
EXTT7=
EXTT8=
EXTT9=
PLAYORDER=
